<svg width="216" height="31" viewBox="0 0 216 31" fill="none" xmlns="http://www.w3.org/2000/svg">
<path d="M15.56 13.854C18.136 14.1607 20.1753 15.0193 21.678 16.43C23.2113 17.8407 23.978 19.5887 23.978 21.674C23.978 23.2687 23.518 24.71 22.598 25.998C21.678 27.286 20.4053 28.3133 18.78 29.08C17.1547 29.816 15.3453 30.184 13.352 30.184C12.4933 30.184 11.512 30.138 10.408 30.046C9.97867 30.0153 9.442 29.9847 8.798 29.954C8.18467 29.9233 7.49467 29.908 6.728 29.908L3.37 29.954C2.75667 29.9847 1.92867 30 0.886 30C0.794 30 0.748 29.908 0.748 29.724C0.748 29.54 0.794 29.448 0.886 29.448C1.77533 29.448 2.45 29.3713 2.91 29.218C3.37 29.034 3.692 28.7273 3.876 28.298C4.09067 27.838 4.198 27.1633 4.198 26.274V4.976C4.198 3.688 3.98333 2.84467 3.554 2.446C3.12467 2.01667 2.25067 1.802 0.932 1.802C0.870667 1.802 0.84 1.71 0.84 1.526C0.84 1.342 0.870667 1.25 0.932 1.25L3.37 1.296C4.78067 1.35733 5.9 1.388 6.728 1.388C7.58667 1.388 8.476 1.342 9.396 1.25C9.70267 1.21933 10.1627 1.18866 10.776 1.158C11.3893 1.12733 11.926 1.112 12.386 1.112C15.1767 1.112 17.3387 1.618 18.872 2.63C20.4053 3.642 21.172 5.114 21.172 7.046C21.172 8.518 20.6813 9.852 19.7 11.048C18.7493 12.244 17.3693 13.1793 15.56 13.854ZM11.696 2.124C10.8067 2.124 10.1933 2.33867 9.856 2.768C9.51867 3.16666 9.35 3.93333 9.35 5.068V13.808L11.19 13.854C12.7847 13.854 14.0113 13.256 14.87 12.06C15.7287 10.864 16.158 9.33067 16.158 7.46C16.158 5.712 15.7747 4.39333 15.008 3.504C14.2413 2.584 13.1373 2.124 11.696 2.124ZM12.57 29.034C16.5873 29.034 18.596 26.9487 18.596 22.778C18.596 20.4167 18.0287 18.546 16.894 17.166C15.7593 15.786 14.042 15.096 11.742 15.096C10.8527 15.096 10.0553 15.1267 9.35 15.188V26.274C9.35 27.286 9.54933 28.0067 9.948 28.436C10.3467 28.8347 11.2207 29.034 12.57 29.034ZM42.2734 30.552C39.4214 30.552 36.8761 29.8927 34.6374 28.574C32.4294 27.2247 30.7121 25.4153 29.4854 23.146C28.2894 20.846 27.6914 18.3467 27.6914 15.648C27.6914 12.4893 28.4888 9.79067 30.0834 7.552C31.6781 5.28267 33.7174 3.58066 36.2014 2.446C38.7161 1.31133 41.2768 0.743998 43.8834 0.743998C46.7968 0.743998 49.3574 1.434 51.5654 2.814C53.7734 4.16333 55.4601 5.95733 56.6254 8.196C57.8214 10.4347 58.4194 12.8113 58.4194 15.326C58.4194 18.1167 57.6834 20.6773 56.2114 23.008C54.7394 25.3387 52.7614 27.1787 50.2774 28.528C47.8241 29.8773 45.1561 30.552 42.2734 30.552ZM43.7914 29.402C45.5088 29.402 47.0421 28.9113 48.3914 27.93C49.7714 26.918 50.8448 25.4613 51.6114 23.56C52.3781 21.628 52.7614 19.328 52.7614 16.66C52.7614 13.8387 52.3321 11.324 51.4734 9.116C50.6148 6.87733 49.3728 5.12933 47.7474 3.872C46.1221 2.61467 44.2208 1.986 42.0434 1.986C39.2528 1.986 37.1061 3.044 35.6034 5.16C34.1008 7.24533 33.3494 10.174 33.3494 13.946C33.3494 16.9207 33.7941 19.5887 34.6834 21.95C35.6034 24.2807 36.8454 26.1053 38.4094 27.424C40.0041 28.7427 41.7981 29.402 43.7914 29.402ZM76.5722 30.552C73.7202 30.552 71.1748 29.8927 68.9362 28.574C66.7282 27.2247 65.0108 25.4153 63.7842 23.146C62.5882 20.846 61.9902 18.3467 61.9902 15.648C61.9902 12.4893 62.7875 9.79067 64.3822 7.552C65.9768 5.28267 68.0162 3.58066 70.5002 2.446C73.0148 1.31133 75.5755 0.743998 78.1822 0.743998C81.0955 0.743998 83.6562 1.434 85.8642 2.814C88.0722 4.16333 89.7588 5.95733 90.9242 8.196C92.1202 10.4347 92.7182 12.8113 92.7182 15.326C92.7182 18.1167 91.9822 20.6773 90.5102 23.008C89.0382 25.3387 87.0602 27.1787 84.5762 28.528C82.1228 29.8773 79.4548 30.552 76.5722 30.552ZM78.0902 29.402C79.8075 29.402 81.3408 28.9113 82.6902 27.93C84.0702 26.918 85.1435 25.4613 85.9102 23.56C86.6768 21.628 87.0602 19.328 87.0602 16.66C87.0602 13.8387 86.6308 11.324 85.7722 9.116C84.9135 6.87733 83.6715 5.12933 82.0462 3.872C80.4208 2.61467 78.5195 1.986 76.3422 1.986C73.5515 1.986 71.4048 3.044 69.9022 5.16C68.3995 7.24533 67.6482 10.174 67.6482 13.946C67.6482 16.9207 68.0928 19.5887 68.9822 21.95C69.9022 24.2807 71.1442 26.1053 72.7082 27.424C74.3028 28.7427 76.0968 29.402 78.0902 29.402ZM124.579 29.448C124.671 29.448 124.717 29.54 124.717 29.724C124.717 29.908 124.671 30 124.579 30H119.427C118.936 30 118.522 30.0153 118.185 30.046C117.848 30.0767 117.572 30.092 117.357 30.092C116.866 30.092 116.437 29.9847 116.069 29.77C115.732 29.5247 115.302 29.0953 114.781 28.482C114.29 27.8687 113.401 26.688 112.113 24.94C111.96 24.7253 111.776 24.4953 111.561 24.25C111.377 23.974 111.162 23.6673 110.917 23.33L104.891 15.234L103.879 16.246V26.274C103.879 27.2247 103.956 27.9147 104.109 28.344C104.262 28.7733 104.554 29.0647 104.983 29.218C105.443 29.3713 106.164 29.448 107.145 29.448C107.268 29.448 107.329 29.54 107.329 29.724C107.329 29.908 107.268 30 107.145 30C106.133 30 105.336 29.9847 104.753 29.954L101.303 29.908L97.8989 29.954C97.2856 29.9847 96.4576 30 95.4149 30C95.3536 30 95.3229 29.908 95.3229 29.724C95.3229 29.54 95.3536 29.448 95.4149 29.448C96.3963 29.448 97.1169 29.3713 97.5769 29.218C98.0369 29.0647 98.3436 28.7733 98.4969 28.344C98.6809 27.884 98.7729 27.194 98.7729 26.274V4.976C98.7729 4.056 98.6809 3.38133 98.4969 2.952C98.3436 2.52266 98.0369 2.23133 97.5769 2.078C97.1476 1.894 96.4576 1.802 95.5069 1.802C95.4149 1.802 95.3689 1.71 95.3689 1.526C95.3689 1.342 95.4149 1.25 95.5069 1.25L97.9449 1.296C99.3556 1.35733 100.475 1.388 101.303 1.388C102.223 1.388 103.388 1.35733 104.799 1.296L107.145 1.25C107.237 1.25 107.283 1.342 107.283 1.526C107.283 1.71 107.237 1.802 107.145 1.802C106.194 1.802 105.489 1.894 105.029 2.078C104.6 2.262 104.293 2.584 104.109 3.044C103.956 3.47333 103.879 4.148 103.879 5.068V14.82L112.527 5.988C113.416 5.09867 113.861 4.286 113.861 3.55C113.861 2.998 113.616 2.56866 113.125 2.262C112.634 1.95533 111.944 1.802 111.055 1.802C110.963 1.802 110.917 1.71 110.917 1.526C110.917 1.342 110.963 1.25 111.055 1.25L113.217 1.296C114.566 1.35733 115.824 1.388 116.989 1.388C118.246 1.388 119.55 1.35733 120.899 1.296L122.969 1.25C123.061 1.25 123.107 1.342 123.107 1.526C123.107 1.71 123.061 1.802 122.969 1.802C121.558 1.802 120.01 2.216 118.323 3.044C116.636 3.84133 115.103 4.91467 113.723 6.264L108.525 11.554L115.333 20.754C117.326 23.606 118.814 25.63 119.795 26.826C120.807 27.9913 121.62 28.7273 122.233 29.034C122.846 29.31 123.628 29.448 124.579 29.448ZM129.606 6.816C129.606 8.04267 129.897 9.10067 130.479 9.99C131.062 10.8793 131.768 11.6307 132.596 12.244C133.454 12.8267 134.635 13.5627 136.137 14.452C137.732 15.4027 138.959 16.2 139.818 16.844C140.707 17.4573 141.458 18.2547 142.072 19.236C142.716 20.2173 143.038 21.398 143.038 22.778C143.038 24.2193 142.685 25.538 141.979 26.734C141.274 27.8993 140.216 28.8347 138.806 29.54C137.426 30.2147 135.724 30.552 133.7 30.552C132.626 30.552 131.599 30.4293 130.618 30.184C129.667 29.9693 128.609 29.5707 127.443 28.988C127.29 28.896 127.183 28.7887 127.121 28.666C127.091 28.5433 127.06 28.3593 127.029 28.114L126.339 22.134V22.088C126.339 21.9653 126.416 21.904 126.569 21.904C126.723 21.8733 126.815 21.9193 126.845 22.042C127.152 24.158 127.965 25.998 129.284 27.562C130.602 29.126 132.412 29.908 134.712 29.908C136.337 29.908 137.702 29.4633 138.806 28.574C139.94 27.6847 140.508 26.2893 140.508 24.388C140.508 23.008 140.201 21.8273 139.588 20.846C138.974 19.834 138.223 19.006 137.334 18.362C136.475 17.6873 135.294 16.9053 133.792 16.016C132.32 15.1573 131.154 14.406 130.296 13.762C129.467 13.118 128.747 12.3207 128.133 11.37C127.551 10.3887 127.259 9.22333 127.259 7.874C127.259 6.34067 127.643 5.03733 128.409 3.964C129.207 2.89067 130.234 2.09333 131.491 1.572C132.749 1.02 134.098 0.743998 135.54 0.743998C137.226 0.743998 138.974 1.112 140.784 1.848C141.244 2.032 141.474 2.29267 141.474 2.63L141.888 7.506C141.888 7.62867 141.796 7.69 141.612 7.69C141.458 7.69 141.366 7.62867 141.336 7.506C141.213 5.91133 140.615 4.48533 139.541 3.228C138.468 1.97067 136.935 1.342 134.942 1.342C133.101 1.342 131.752 1.87867 130.894 2.952C130.035 4.02533 129.606 5.31333 129.606 6.816ZM176.588 29.448C176.71 29.448 176.772 29.54 176.772 29.724C176.772 29.908 176.71 30 176.588 30C176.036 30 175.146 29.9693 173.92 29.908C172.754 29.8467 171.896 29.816 171.344 29.816C170.7 29.816 169.856 29.8467 168.814 29.908C167.832 29.9693 167.096 30 166.606 30C166.483 30 166.422 29.908 166.422 29.724C166.422 29.54 166.483 29.448 166.606 29.448C167.863 29.448 168.768 29.3407 169.32 29.126C169.872 28.8807 170.148 28.482 170.148 27.93C170.148 27.5007 169.979 26.9027 169.642 26.136L164.168 14.406H155.382L151.242 24.342C150.812 25.3847 150.598 26.2433 150.598 26.918C150.598 27.8073 150.966 28.4513 151.702 28.85C152.438 29.2487 153.588 29.448 155.152 29.448C155.305 29.448 155.382 29.54 155.382 29.724C155.382 29.908 155.305 30 155.152 30C154.6 30 153.802 29.9693 152.76 29.908C151.594 29.8467 150.582 29.816 149.724 29.816C148.957 29.816 148.052 29.8467 147.01 29.908C146.09 29.9693 145.338 30 144.756 30C144.602 30 144.526 29.908 144.526 29.724C144.526 29.54 144.602 29.448 144.756 29.448C145.614 29.448 146.335 29.2947 146.918 28.988C147.531 28.6813 148.098 28.1293 148.62 27.332C149.172 26.5347 149.754 25.4 150.368 23.928L159.982 0.789998C160.043 0.697999 160.135 0.651999 160.258 0.651999C160.411 0.651999 160.503 0.697999 160.534 0.789998L171.206 23.698C171.911 25.262 172.54 26.458 173.092 27.286C173.644 28.0833 174.18 28.6507 174.702 28.988C175.254 29.2947 175.882 29.448 176.588 29.448ZM155.75 13.532H163.8L159.522 4.424L155.75 13.532ZM215.553 1.25C215.645 1.25 215.691 1.342 215.691 1.526C215.691 1.71 215.645 1.802 215.553 1.802C214.51 1.802 213.636 2.032 212.931 2.492C212.256 2.92133 211.658 3.74933 211.137 4.976L201.017 29.954C200.986 30.0767 200.818 30.138 200.511 30.138C200.266 30.138 200.097 30.0767 200.005 29.954L193.979 16.752L188.643 29.954C188.612 30.0767 188.444 30.138 188.137 30.138C187.892 30.138 187.723 30.0767 187.631 29.954L176.269 5.068C175.748 3.872 175.18 3.02867 174.567 2.538C173.984 2.04733 173.218 1.802 172.267 1.802C172.175 1.802 172.129 1.71 172.129 1.526C172.129 1.342 172.175 1.25 172.267 1.25L174.245 1.296C175.104 1.35733 175.748 1.388 176.177 1.388C177.066 1.388 178.124 1.35733 179.351 1.296L181.329 1.25C181.421 1.25 181.467 1.342 181.467 1.526C181.467 1.71 181.421 1.802 181.329 1.802C180.378 1.802 179.658 1.90933 179.167 2.124C178.676 2.33867 178.431 2.722 178.431 3.274C178.431 3.58066 178.554 4.02533 178.799 4.608L188.965 26.55L193.427 15.556L188.643 5.068C188.122 3.872 187.554 3.02867 186.941 2.538C186.358 2.04733 185.592 1.802 184.641 1.802C184.549 1.802 184.503 1.71 184.503 1.526C184.503 1.342 184.549 1.25 184.641 1.25L186.619 1.296C187.478 1.35733 188.122 1.388 188.551 1.388C189.195 1.388 189.946 1.35733 190.805 1.296L192.093 1.25C192.185 1.25 192.231 1.342 192.231 1.526C192.231 1.71 192.185 1.802 192.093 1.802C191.48 1.802 191.05 1.848 190.805 1.94C190.56 2.032 190.437 2.216 190.437 2.492C190.437 2.768 190.682 3.47333 191.173 4.608L194.853 12.52L198.027 4.7C198.303 4.056 198.441 3.51933 198.441 3.09C198.441 2.63 198.257 2.308 197.889 2.124C197.552 1.90933 197 1.802 196.233 1.802C196.172 1.802 196.141 1.71 196.141 1.526C196.141 1.342 196.172 1.25 196.233 1.25L197.521 1.296C198.134 1.35733 198.717 1.388 199.269 1.388C199.882 1.388 200.588 1.35733 201.385 1.296L203.363 1.25C203.424 1.25 203.455 1.342 203.455 1.526C203.455 1.71 203.424 1.802 203.363 1.802C202.32 1.802 201.446 2.032 200.741 2.492C200.036 2.92133 199.438 3.74933 198.947 4.976L195.405 13.716L201.339 26.55L210.217 4.7C210.432 4.24 210.539 3.79533 210.539 3.366C210.539 2.814 210.248 2.41533 209.665 2.17C209.113 1.92467 208.178 1.802 206.859 1.802C206.767 1.802 206.721 1.71 206.721 1.526C206.721 1.342 206.767 1.25 206.859 1.25L208.699 1.296C209.742 1.35733 210.662 1.388 211.459 1.388C212.103 1.388 212.824 1.35733 213.621 1.296L215.553 1.25Z" fill="#0A0A0A"/>
</svg>
